<svg xmlns="http://www.w3.org/2000/svg" viewBox="0 0 100 100">
  <defs>
    <linearGradient id="light-body" x1="0%" y1="0%" x2="0%" y2="100%">
      <stop offset="0%" stop-color="#FFE566"/>
      <stop offset="100%" stop-color="#F5C400"/>
    </linearGradient>
  </defs>
  <path d="M 24 28 Q 50 10 76 28 L 74 36 Q 50 22 26 36 Z" fill="#F5E6B8" stroke="#1a1a1a" stroke-width="2"/>
  <rect x="42" y="74" width="16" height="7" rx="3" fill="#FFCF00" stroke="#1a1a1a" stroke-width="1.6"/>
  <path d="M 26 28 C 26 22 38 18 50 18 C 62 18 74 22 74 28 L 75 66 C 75 72 62 76 50 76 C 38 76 25 72 25 66 Z" fill="url(#light-body)" stroke="#1a1a1a" stroke-width="2.2"/>
  <ellipse cx="38" cy="36" rx="11" ry="14" fill="#fff" opacity="0.26"/>
  <path d="M 33 37 Q 38 33 43 37" fill="none" stroke="#1a1a1a" stroke-width="1.7" stroke-linecap="round"/>
  <path d="M 57 37 Q 62 33 67 37" fill="none" stroke="#1a1a1a" stroke-width="1.7" stroke-linecap="round"/>
  <circle cx="39" cy="44" r="4.3" fill="#1a1a1a"/>
  <circle cx="40.3" cy="42.7" r="1.1" fill="#fff"/>
  <circle cx="61" cy="44" r="4.3" fill="#1a1a1a"/>
  <circle cx="62.3" cy="42.7" r="1.1" fill="#fff"/>
  <path d="M 32 55 Q 50 73 68 55 L 68 61 Q 50 77 32 61 Z" fill="#fff" stroke="#1a1a1a" stroke-width="2.2" stroke-linejoin="round"/>
  <ellipse cx="50" cy="66" rx="8.5" ry="4.8" fill="#E30613"/>
</svg>
