<?xml version="1.0" encoding="UTF-8"?>
<svg width="592.55" height="800" version="1.1" viewBox="0 0 592.55 800" xmlns="http://www.w3.org/2000/svg">
 <defs>
  <style>.cls-1{fill:#16457a;}.cls-2{fill:#fff;}.cls-3{fill:#ed2f25;}</style>
 </defs>
 <g stroke-width="1.8199">
  <path class="cls-1" d="m590.75 92.67c-203.37 5.0229-294.46-92.668-294.46-92.668s-90.994 97.691-294.35 92.668l-1.9473 304.14c0.21838 98.146 14.668 190.58 92.814 265.08 69.865 66.553 158.22 117.58 203.35 138.02v0.0908h0.21839v-0.0908c45.133-20.437 133.49-71.467 203.35-138.02 78.255-74.506 92.65-166.94 92.814-265.08z" fill="#16457a"/>
  <path class="cls-2" d="m296.4 19.69s-84.97 86.026-281.1 86.462l0.12738 300.9c0.21839 98.146 18.963 182.93 99.893 254.49 61.639 54.596 142.62 101.15 181.08 120.2 38.436-19.054 119.42-65.679 181.08-120.2 80.912-71.558 99.675-156.35 99.893-254.49l0.12739-300.9c-196.13-0.43677-281.1-86.462-281.1-86.462z" fill="#fff"/>
  <path class="cls-1" d="m296.4 41.58s-79.419 80.548-262.63 80.948l0.10916 287.21c0.21839 91.685 17.744 170.89 93.305 237.73 57.599 50.957 133.29 94.634 169.25 112.5 35.906-17.798 111.59-61.566 169.25-112.5 75.489-66.844 93.014-146.05 93.196-237.73l0.14561-287.21c-183.21-0.40032-262.63-80.948-262.63-80.948z" fill="#16457a"/>
  <path class="cls-2" d="m197.42 331.65 1.6015-3.1666 8.79-17.325 1.6561-3.0028-1.0555-3.294-5.4596-17.307-2.566-8.0803-8.0621 2.5661-16.961 5.4596-8.1895 2.4568 2.566 8.0621 1.8199 5.4596-31.247 9.8819-26.243-82.531 31.138-9.9001 1.8199 5.7508 2.566 8.0803 8.0803-2.566 16.961-5.4596 8.0621-2.566-2.566-8.0439-9.7728-30.738-2.566-8.062-8.0621 2.566-16.961 5.4596-8.0621 2.5661 0.54593 1.7106-2.2203-1.2193-3.3486 1.0738-40.292 12.739-3.3486 1.0555-1.6015 3.1302-8.517 16.543-0.41854 0.819-0.23661 0.87354v0.0908l-0.63693 2.384 0.74615 2.3659 33.923 106.72 1.0555 3.3486 3.112 1.6197 17.398 8.9902 3.112 1.6015 3.3304-1.0555 56.744-18.035zm93.087-46.552h-6.4242v-5.86l11.556-16.543 8.4624 22.403h-4.1857v34.687h50.265v-34.687h-8.9356l-21.529-56.871 20.783-29.737h9.6636v-34.705h-50.229v32.758l-15.851 22.712v-20.765h6.406v-34.705h-49.246v34.705h6.2968v86.626h-6.2968v34.687h49.246zm205.28-86.135-42.622-13.467-8.0621-2.5478-2.5478 8.0621-5.3504 16.943-2.5478 8.0803 4.0037 1.2557-48.482 75.507-7.1521-2.2566-2.5478 8.062-5.405 16.961-2.5478 8.062 8.0621 2.5479 31.793 10.064 8.0621 2.5478 2.5478-8.062 5.3504-16.943 2.5478-8.0621-6.5334-2.0746 3.8217-5.951 23.495 7.4251-0.1638 7.043-6.5334-2.0565-2.566 8.062-5.4596 16.943-2.5478 8.0621 39.855 12.594 8.0621 2.5478 2.5478-8.062 5.3504-16.943 2.5478-8.0621-7.1521-2.2566 3.6398-89.665 4.0037 1.2739 2.5478-8.0621 5.3504-16.943 2.5478-8.062zm-42.694 73.614-7.2795-2.293 7.8983-12.339zm-122.26 200.37-34.578-106.23-34.578 106.23h-111.58l90.302 65.661-34.578 106.24 90.357-65.661 90.503 65.643-34.578-106.23 90.357-65.643z" fill="#fff"/>
  <path class="cls-3" d="m282.02 293.6h-6.406v-16.998l22.257-31.848 18.508 48.846h-7.9711v17.78h33.34v-17.78h-6.315l-25.187-66.517 25.879-37.035h5.6234v-17.78h-33.358v17.78h6.4424l-39.218 56.107v-56.125h6.406v-17.78h-32.321v17.78h6.2968v103.57h-6.2968v17.78h32.321zm205.88-69.629 5.3504-16.943-42.64-13.522-5.3504 16.943 6.4788 2.0565-57.945 90.266-5.2594-1.6561-5.3504 16.961 31.775 10.1 5.3686-16.943-9.0084-2.839 13.267-20.71 35.852 11.338-1.0373 24.587-8.9902-2.839-5.3504 16.943 31.793 10.046 5.3504-16.943-5.2594-1.6561 4.4405-107.19zm-26.825 60.056-28.354-8.9538 30.774-48.045zm-260.82 23.331-5.4596-17.307-16.961 5.4596 4.2949 13.522-47.317 15.014-31.356-98.656 47.317-15.032 4.4041 13.831 16.961-5.4596-9.8273-30.683-16.961 5.4596 1.5105 4.7135-8.3714 2.566-6.1876-3.2394-40.31 12.739-8.517 16.543v0.0908l33.832 106.72 17.416 8.9902 56.744-18.035zm121.4 178.57-25.351-78.036-25.351 78.036h-82.04l66.371 48.227-25.351 77.927 66.371-48.227 66.389 48.227-25.351-78.036 66.371-48.227z" fill="#ed2f25"/>
  <path class="cls-1" d="m283.42 292.16h-6.406v-15.141l20.492-29.318 16.834 44.46h-7.2795v20.583h36.143v-20.583h-6.7518l-24.587-64.915 24.987-35.815h6.2968v-20.583h-36.161v20.583h5.1503l-35.142 50.265v-50.265h6.406v-20.583h-35.124v20.583h6.2968v100.73h-6.2968v20.583h35.124zm-2.8026 17.817h-29.518v-14.959h6.2968v-106.41h-6.2968v-14.978h29.518v14.978h-6.406v61.876l43.313-61.876h-7.7345v-14.978h30.538v14.978h-4.9319l-26.734 38.217 25.788 68.1h5.8782v15.05h-30.538v-14.959h8.608l-20.146-53.213-24.041 34.323v18.836h6.406zm208.18-84.206 6.2058-19.618-45.315-14.359-6.2058 19.618 6.0602 1.929-56.416 87.827-5.5688-1.8199-6.133 19.728 34.468 10.919 6.2058-19.637-8.5898-2.7116 11.72-18.199 33.795 10.683-0.90994 21.675-8.5898-2.7116-6.1876 19.618 34.468 10.919 6.2058-19.618-5.5688-1.8198 4.3313-104.28zm-13.231 103.31v1.0738l4.9501 1.5651-4.5133 14.268-29.118-9.2086 4.5133-14.268 9.4088 2.9846 1.1647-27.48-37.89-11.975-14.85 23.167 9.4088 2.9664-4.5861 14.177-29.118-9.2086 4.5133-14.286 4.9319 1.5651 59.528-92.723-6.8791-2.1839 4.4769-14.195 40.037 12.612-4.5133 14.268-6.8973-2.1657zm-13.14-43.222 2.7116-64.023-34.578 53.959zm-2.657-3.7853-24.86-7.8619 26.989-42.13zm-267.3 43.677 9.3178-18.344-6.0966-19.182-19.636 6.2604 4.2949 13.522-44.587 14.177-30.538-95.926 44.587-14.177 4.3859 13.813 19.636-6.2604-10.61-33.413-19.636 6.2422 1.4923 4.7135-6.588 2.0929-6.1876-3.2394-41.42 13.176-8.7172 17.052-0.23661 0.76431 34.05 107.12 0.182 0.54613 18.435 9.518 57.308-18.199zm-57.617 15.433-16.379-8.4624-33.577-105.55 8.0985-15.651 39.182-12.466 6.1876 3.2393 10.319-3.2939-1.4923-4.7135 14.286-4.5497 8.9174 28.062-14.286 4.5497-4.3859-13.831-50.01 15.924 32.212 101.33 49.937-15.869-4.2949-13.522 14.286-4.5497 4.8955 15.414-8.2622 16.27zm165.03 71.576-3.6398-10.919-3.6398 10.919-23.076 71.266h-86.444l9.2996 6.7699 60.766 44.041-23.149 71.266-3.6398 10.919 9.3178-6.7518 60.62-44.041 60.584 44.023 9.3178 6.7517-3.6398-10.919-23.149-71.266 60.62-44.041 9.2996-6.7699h-86.299zm35.269 120.66 24.004 73.851-62.822-45.643-62.84 45.643 24.004-73.851-62.822-45.643h77.654l24.004-73.851 24.004 73.851h77.654z" fill="#16457a"/>
 </g>
</svg>
